<svg width="45" height="96" xmlns="http://www.w3.org/2000/svg" xmlns:xlink="http://www.w3.org/1999/xlink" xml:space="preserve" overflow="hidden"><g transform="translate(-551 -290)"><path d="M581.484 301C581.484 305.418 577.902 309 573.484 309 569.066 309 565.484 305.418 565.484 301 565.484 296.582 569.066 293 573.484 293 577.902 293 581.484 296.582 581.484 301Z"/><path d="M595.284 342.2 589.684 318.4C589.484 317.6 589.084 316.8 588.484 316.2 586.084 314.2 583.284 312.8 580.084 311.8 577.884 311.4 575.684 311 573.484 311 571.284 311 569.084 311.4 566.884 312 563.684 312.8 560.884 314.4 558.484 316.4 557.884 317 557.484 317.8 557.284 318.6L551.684 342.4C551.684 342.6 551.484 343 551.484 343.4 551.484 345.6 553.284 347.4 555.484 347.4 557.284 347.4 558.884 346 559.284 344.4L563.484 327 563.484 383 571.484 383 571.484 347 575.484 347 575.484 383 583.484 383 583.484 326.8 587.684 344.2C588.084 345.8 589.684 347.2 591.484 347.2 593.684 347.2 595.484 345.4 595.484 343.2 595.484 342.8 595.284 342.4 595.284 342.2Z"/></g></svg>